<svg xmlns="http://www.w3.org/2000/svg" viewBox="0 0 64 64" role="img" aria-label="Linux">
  <rect width="64" height="64" rx="14" fill="#111827"/>
  <path fill="#f9fafb" d="M32 10c-8.5 0-14 7.2-14 18.3 0 5.4-2.5 9-5.1 12.9-1.6 2.3-3.2 4.7-4.1 7.6-.5 1.7.8 3.2 2.6 3.2h41.2c1.8 0 3.1-1.6 2.6-3.2-.9-2.9-2.5-5.3-4.1-7.6C48.5 37.3 46 33.7 46 28.3 46 17.2 40.5 10 32 10Z"/>
  <path fill="#facc15" d="M25.5 34.5h13l5.5 11H20l5.5-11Z"/>
  <circle cx="27" cy="25" r="3" fill="#111827"/>
  <circle cx="37" cy="25" r="3" fill="#111827"/>
  <path fill="#111827" d="M26 31c2.7 2 9.3 2 12 0-1.4 3.2-10.6 3.2-12 0Z"/>
</svg>
